<?xml version="1.0" standalone="no"?>
<!DOCTYPE svg PUBLIC "-//W3C//DTD SVG 20010904//EN"
 "http://www.w3.org/TR/2001/REC-SVG-20010904/DTD/svg10.dtd">
<svg version="1.0" xmlns="http://www.w3.org/2000/svg"
 width="500.000000pt" height="500.000000pt" viewBox="0 0 500.000000 500.000000"
 preserveAspectRatio="xMidYMid meet">

<g transform="translate(0.000000,500.000000) scale(0.100000,-0.100000)"
fill="#000000" stroke="none">
<path d="M2401 3734 c-88 -24 -166 -72 -235 -144 -112 -119 -146 -216 -146
-417 l0 -133 -172 0 -173 0 -335 -173 c-213 -110 -336 -178 -338 -189 -4 -19
406 -1396 421 -1416 14 -18 2140 -18 2154 1 15 19 425 1396 421 1415 -2 11
-125 79 -338 189 l-335 173 -172 0 -173 0 0 133 c0 201 -34 298 -146 417 -70
74 -147 121 -239 145 -72 18 -123 18 -194 -1z m151 -75 c133 -28 240 -115 305
-246 l38 -77 4 -148 3 -148 -402 0 -402 0 3 148 4 148 38 77 c63 128 163 211
292 243 65 16 56 16 117 3z m-530 -886 c3 -177 3 -178 26 -181 48 -7 52 8 52
189 l0 169 400 0 400 0 0 -169 c0 -181 4 -196 52 -189 23 3 23 4 26 181 l2
177 151 0 c111 0 151 -3 153 -12 2 -7 11 -69 20 -138 9 -69 27 -210 41 -315
24 -179 36 -261 70 -515 53 -391 85 -631 85 -635 0 -3 -450 -5 -1000 -5 -550
0 -1000 2 -1000 5 0 3 16 123 35 267 34 246 42 311 80 586 35 262 66 497 81
612 9 69 18 131 20 138 2 9 42 12 153 12 l151 0 2 -177z m-407 47 c-7 -52 -25
-185 -39 -295 -15 -110 -31 -229 -36 -265 -5 -36 -19 -135 -30 -220 -12 -85
-27 -200 -35 -255 -7 -55 -19 -142 -26 -193 -6 -51 -13 -91 -15 -89 -10 9
-343 1142 -337 1145 5 1 125 63 268 137 143 73 260 133 261 132 1 -1 -4 -45
-11 -97z m2292 -175 c3 -2 -335 -1137 -340 -1142 -2 -2 -10 38 -16 89 -7 51
-19 138 -26 193 -25 178 -44 317 -60 440 -9 66 -22 167 -30 225 -8 58 -23 175
-35 260 -11 85 -22 168 -25 183 -5 27 3 24 263 -109 147 -75 268 -138 269
-139z"/>
</g>
</svg>
